<svg width="74" height="80" viewBox="0 0 74 80" fill="none" xmlns="http://www.w3.org/2000/svg" xmlns:xlink="http://www.w3.org/1999/xlink">
<path d="M0,14.099L0,6L8.098,6L36.44,34.345L64.782,6L72.879,6L72.879,14.099L8.098,78.888L0,78.888L0,70.79L28.342,42.444L0,14.099Z" fill="#FFFFFF"/>
<path d="M13.425,42.444L0,29.017L0,55.871L13.425,42.444Z" fill="#FFFFFF"/>
<path d="M43.154,12.713L29.727,-0.712L29.727,26.139L43.154,12.713Z" transform="rotate(180 36.441 12.713)" fill="#FFFFFF"/>
<path d="M57.536,78.888L72.879,78.888L72.879,63.543L57.536,78.888Z" fill="#FFFFFF"/>
<path d="M72.88,29.017L23.015,78.888L42.194,78.888L72.88,48.198L72.88,29.017Z" fill="#FFFFFF"/>
</svg>
