<svg width="82" height="90" viewBox="0 0 82 90" fill="none" xmlns="http://www.w3.org/2000/svg" xmlns:xlink="http://www.w3.org/1999/xlink">
<path d="M-0.64,16.416L-0.64,7.285L8.491,7.285L40.452,39.245L72.413,7.285L81.545,7.285L81.545,16.416L8.491,89.47L-0.64,89.47L-0.64,80.338L31.321,48.377L-0.64,16.416Z" fill="#FFFFFF"/>
<path d="M48.022,14.854L32.882,-0.285L32.882,29.994L48.022,14.854Z" transform="rotate(180 40.452 14.854)" fill="#FFFFFF"/>
<path d="M64.242,89.469L81.544,89.469L81.544,72.167L64.242,89.469Z" fill="#FFFFFF"/>
<path d="M81.545,33.238L25.313,89.47L46.941,89.47L81.545,54.866L81.545,33.238Z" fill="#FFFFFF"/>
<path d="M14.499,48.378L-0.64,33.238L-0.64,63.517L14.499,48.378Z" fill="#FFFFFF"/>
</svg>
