<svg width="210" height="100" viewBox="0 0 210 100" fill="none" xmlns="http://www.w3.org/2000/svg" xmlns:xlink="http://www.w3.org/1999/xlink">
<path d="M203.684,96.686C204.264,97.914 205.728,98.44 206.956,97.862C208.184,97.283 208.71,95.819 208.132,94.591L203.684,96.686ZM0.739,10.424C-0.541,10.877 -1.212,12.281 -0.759,13.561C-0.306,14.841 1.098,15.511 2.378,15.059L0.739,10.424ZM8.355,13.042C9.648,12.627 10.359,11.242 9.944,9.95C9.529,8.657 8.145,7.946 6.853,8.361L8.355,13.042ZM14.185,6.152C12.879,6.52 12.117,7.877 12.485,9.184C12.852,10.491 14.21,11.252 15.516,10.885L14.185,6.152ZM27.647,7.89C28.975,7.609 29.823,6.304 29.542,4.976C29.26,3.648 27.955,2.8 26.627,3.081L27.647,7.89ZM34.159,1.645C32.821,1.872 31.919,3.14 32.146,4.479C32.372,5.817 33.64,6.719 34.979,6.493L34.159,1.645ZM47.348,4.861C48.699,4.734 49.691,3.535 49.564,2.183C49.437,0.832 48.238,-0.161 46.886,-0.033L47.348,4.861ZM54.555,-0.579C53.199,-0.514 52.153,0.638 52.218,1.994C52.283,3.35 53.434,4.396 54.79,4.331L54.555,-0.579ZM67.233,4.233C68.59,4.277 69.726,3.213 69.77,1.857C69.814,0.5 68.75,-0.636 67.393,-0.68L67.233,4.233ZM75.088,-0.237C73.735,-0.349 72.548,0.657 72.436,2.01C72.324,3.363 73.33,4.55 74.683,4.662L75.088,-0.237ZM87.004,6.208C88.343,6.435 89.611,5.533 89.838,4.195C90.064,2.856 89.162,1.587 87.824,1.361L87.004,6.208ZM95.384,2.841C94.059,2.546 92.746,3.381 92.451,4.706C92.156,6.031 92.991,7.344 94.316,7.639L95.384,2.841ZM106.341,10.869C107.636,11.277 109.016,10.559 109.425,9.264C109.833,7.969 109.115,6.589 107.82,6.18L106.341,10.869ZM115.108,8.687C113.836,8.212 112.42,8.859 111.946,10.131C111.472,11.403 112.118,12.819 113.39,13.293L115.108,8.687ZM124.844,18.123C126.072,18.703 127.537,18.177 128.116,16.949C128.696,15.722 128.17,14.257 126.943,13.677L124.844,18.123ZM133.825,17.136C132.627,16.497 131.138,16.949 130.499,18.147C129.86,19.345 130.313,20.834 131.511,21.473L133.825,17.136ZM142.254,27.771C143.397,28.504 144.918,28.171 145.65,27.028C146.382,25.885 146.05,24.364 144.906,23.632L142.254,27.771ZM151.287,27.932C150.179,27.148 148.645,27.41 147.861,28.518C147.076,29.626 147.339,31.16 148.447,31.944L151.287,27.932ZM158.349,39.527C159.395,40.392 160.945,40.244 161.809,39.198C162.674,38.151 162.526,36.602 161.48,35.737L158.349,39.527ZM167.298,40.761C166.29,39.852 164.736,39.932 163.827,40.94C162.918,41.948 162.998,43.503 164.007,44.412L167.298,40.761ZM172.975,53.091C173.917,54.068 175.473,54.097 176.45,53.155C177.428,52.213 177.457,50.657 176.515,49.68L172.975,53.091ZM181.729,55.321C180.828,54.305 179.275,54.212 178.259,55.112C177.243,56.013 177.15,57.567 178.051,58.582L181.729,55.321ZM186.005,68.201C186.833,69.276 188.376,69.476 189.452,68.648C190.527,67.819 190.728,66.276 189.899,65.201L186.005,68.201ZM194.451,71.373C193.668,70.264 192.135,69.998 191.025,70.781C189.916,71.563 189.651,73.097 190.433,74.206L194.451,71.373ZM197.245,84.665C197.941,85.83 199.451,86.21 200.616,85.513C201.78,84.816 202.16,83.307 201.464,82.142L197.245,84.665ZM205.258,88.858C204.62,87.66 203.132,87.204 201.934,87.841C200.735,88.478 200.279,89.966 200.916,91.165L205.258,88.858ZM2.378,15.059C4.385,14.349 6.377,13.677 8.355,13.042L6.853,8.361C4.828,9.011 2.79,9.698 0.739,10.424L2.378,15.059ZM15.516,10.885C19.624,9.73 23.667,8.734 27.647,7.89L26.627,3.081C22.541,3.948 18.394,4.969 14.185,6.152L15.516,10.885ZM34.979,6.493C39.176,5.783 43.299,5.243 47.348,4.861L46.886,-0.033C42.716,0.36 38.473,0.916 34.159,1.645L34.979,6.493ZM54.79,4.331C59.022,4.129 63.17,4.1 67.233,4.233L67.393,-0.68C63.198,-0.817 58.918,-0.788 54.555,-0.579L54.79,4.331ZM74.683,4.662C78.885,5.01 82.992,5.53 87.004,6.208L87.824,1.361C83.675,0.66 79.429,0.122 75.088,-0.237L74.683,4.662ZM94.316,7.639C98.43,8.556 102.439,9.638 106.341,10.869L107.82,6.18C103.785,4.908 99.639,3.788 95.384,2.841L94.316,7.639ZM113.39,13.293C117.324,14.759 121.142,16.376 124.844,18.123L126.943,13.677C123.119,11.873 119.173,10.202 115.108,8.687L113.39,13.293ZM131.511,21.473C135.218,23.451 138.8,25.558 142.254,27.771L144.906,23.632C141.346,21.351 137.651,19.177 133.825,17.136L131.511,21.473ZM148.447,31.944C151.887,34.379 155.188,36.915 158.349,39.527L161.48,35.737C158.228,33.05 154.83,30.44 151.287,27.932L148.447,31.944ZM164.007,44.412C167.153,47.248 170.143,50.151 172.975,53.091L176.515,49.68C173.605,46.66 170.533,43.677 167.298,40.761L164.007,44.412ZM178.051,58.582C180.887,61.78 183.538,64.999 186.005,68.201L189.899,65.201C187.365,61.911 184.642,58.605 181.729,55.321L178.051,58.582ZM190.433,74.206C192.941,77.762 195.212,81.266 197.245,84.665L201.464,82.142C199.367,78.637 197.029,75.029 194.451,71.373L190.433,74.206ZM200.916,91.165C201.922,93.058 202.844,94.901 203.684,96.686L208.132,94.591C207.258,92.733 206.298,90.818 205.258,88.858L200.916,91.165Z" fill="#8B8B8B"/>
</svg>
