<svg width="156" height="336" viewBox="0 0 156 336" fill="none" xmlns="http://www.w3.org/2000/svg" xmlns:xlink="http://www.w3.org/1999/xlink">
<path d="M150.416,331.775C150.491,333.129 151.651,334.167 153.006,334.093C154.362,334.019 155.4,332.859 155.325,331.503L150.416,331.775ZM2.622,-0.226C1.405,-0.826 -0.069,-0.325 -0.669,0.892C-1.269,2.11 -0.769,3.583 0.449,4.184L2.622,-0.226ZM5.864,6.996C7.055,7.647 8.549,7.208 9.199,6.017C9.85,4.826 9.412,3.332 8.22,2.682L5.864,6.996ZM14.759,6.463C13.6,5.755 12.088,6.12 11.38,7.279C10.672,8.437 11.037,9.95 12.195,10.658L14.759,6.463ZM22.356,17.429C23.456,18.225 24.993,17.978 25.788,16.878C26.584,15.778 26.337,14.241 25.237,13.445L22.356,17.429ZM31.255,18.003C30.191,17.16 28.645,17.34 27.802,18.404C26.959,19.468 27.138,21.014 28.202,21.857L31.255,18.003ZM37.527,29.786C38.531,30.7 40.085,30.627 40.999,29.623C41.913,28.619 41.84,27.065 40.836,26.151L37.527,29.786ZM46.295,31.317C45.327,30.365 43.771,30.379 42.819,31.347C41.868,32.315 41.881,33.871 42.849,34.823L46.295,31.317ZM51.329,43.677C52.239,44.684 53.793,44.763 54.8,43.853C55.808,42.944 55.887,41.389 54.977,40.382L51.329,43.677ZM59.922,46.045C59.046,45.008 57.495,44.877 56.458,45.753C55.421,46.629 55.291,48.18 56.167,49.217L59.922,46.045ZM63.845,58.801C64.666,59.881 66.208,60.091 67.289,59.269C68.369,58.447 68.579,56.905 67.757,55.825L63.845,58.801ZM72.222,61.874C71.432,60.77 69.896,60.516 68.793,61.307C67.689,62.098 67.435,63.633 68.226,64.737L72.222,61.874ZM75.164,74.892C75.905,76.029 77.428,76.35 78.565,75.609C79.703,74.867 80.024,73.344 79.282,72.207L75.164,74.892ZM83.291,78.527C82.578,77.372 81.064,77.014 79.909,77.727C78.754,78.44 78.395,79.955 79.109,81.11L83.291,78.527ZM85.375,91.711C86.043,92.892 87.543,93.308 88.724,92.639C89.906,91.97 90.321,90.471 89.653,89.289L85.375,91.711ZM93.276,95.854C92.632,94.659 91.142,94.211 89.947,94.854C88.751,95.498 88.304,96.988 88.947,98.184L93.276,95.854ZM94.604,109.135C95.208,110.351 96.682,110.848 97.899,110.245C99.115,109.642 99.612,108.167 99.008,106.951L94.604,109.135ZM102.268,113.68C101.687,112.453 100.222,111.929 98.995,112.509C97.767,113.089 97.243,114.555 97.823,115.782L102.268,113.68ZM102.932,127.011C103.476,128.255 104.925,128.822 106.169,128.278C107.412,127.734 107.979,126.284 107.435,125.041L102.932,127.011ZM110.376,131.919C109.853,130.666 108.413,130.075 107.161,130.599C105.908,131.122 105.317,132.562 105.841,133.814L110.376,131.919ZM110.45,145.266C110.94,146.532 112.364,147.16 113.63,146.67C114.896,146.179 115.524,144.755 115.034,143.49L110.45,145.266ZM117.682,150.478C117.21,149.205 115.796,148.555 114.523,149.027C113.25,149.499 112.601,150.913 113.072,152.186L117.682,150.478ZM117.226,163.818C117.668,165.102 119.066,165.784 120.35,165.343C121.634,164.901 122.316,163.503 121.875,162.219L117.226,163.818ZM124.257,169.301C123.833,168.011 122.444,167.31 121.154,167.734C119.865,168.158 119.163,169.548 119.587,170.837L124.257,169.301ZM123.321,182.616C123.717,183.914 125.091,184.645 126.389,184.249C127.688,183.853 128.419,182.479 128.023,181.18L123.321,182.616ZM130.158,188.333C129.777,187.03 128.413,186.282 127.11,186.662C125.806,187.042 125.058,188.407 125.438,189.71L130.158,188.333ZM128.781,201.61C129.135,202.921 130.485,203.695 131.795,203.341C133.106,202.987 133.881,201.638 133.527,200.327L128.781,201.61ZM135.435,207.555C135.096,206.239 133.755,205.449 132.441,205.787C131.126,206.127 130.335,207.467 130.674,208.781L135.435,207.555ZM133.648,220.783C133.962,222.103 135.288,222.919 136.608,222.605C137.929,222.291 138.745,220.965 138.431,219.645L133.648,220.783ZM140.113,226.893C139.813,225.569 138.497,224.739 137.173,225.039C135.849,225.337 135.018,226.655 135.318,227.979L140.113,226.893ZM137.939,240.063C138.214,241.391 139.515,242.245 140.845,241.969C142.174,241.695 143.028,240.393 142.752,239.063L137.939,240.063ZM144.234,246.405C143.972,245.073 142.681,244.205 141.349,244.467C140.016,244.727 139.149,246.019 139.41,247.351L144.234,246.405ZM141.684,259.505C141.922,260.841 143.198,261.731 144.535,261.493C145.871,261.255 146.762,259.979 146.524,258.643L141.684,259.505ZM147.794,266.005C147.57,264.667 146.304,263.761 144.965,263.985C143.626,264.209 142.722,265.475 142.945,266.815L147.794,266.005ZM144.873,279.033C145.073,280.377 146.323,281.303 147.666,281.103C149.009,280.905 149.935,279.653 149.736,278.311L144.873,279.033ZM150.79,285.681C150.605,284.337 149.365,283.397 148.02,283.581C146.675,283.765 145.735,285.005 145.919,286.351L150.79,285.681ZM147.488,298.633C147.647,299.981 148.868,300.945 150.217,300.787C151.565,300.627 152.529,299.407 152.37,298.057L147.488,298.633ZM153.196,305.449C153.054,304.099 151.844,303.121 150.494,303.263C149.144,303.405 148.165,304.615 148.308,305.965L153.196,305.449ZM149.477,318.303C149.59,319.657 150.778,320.661 152.131,320.549C153.483,320.435 154.488,319.247 154.376,317.895L149.477,318.303ZM154.942,325.337C154.849,323.981 153.676,322.959 152.322,323.053C150.968,323.145 149.945,324.319 150.038,325.673L154.942,325.337ZM0.449,4.184C2.274,5.083 4.079,6.021 5.864,6.996L8.22,2.682C6.376,1.674 4.51,0.705 2.622,-0.226L0.449,4.184ZM12.195,10.658C15.66,12.776 19.046,15.035 22.356,17.429L25.237,13.445C21.827,10.98 18.335,8.649 14.759,6.463L12.195,10.658ZM28.202,21.857C31.384,24.377 34.492,27.023 37.527,29.786L40.836,26.151C37.721,23.315 34.528,20.596 31.255,18.003L28.202,21.857ZM42.849,34.823C45.745,37.669 48.571,40.622 51.329,43.677L54.977,40.382C52.156,37.258 49.263,34.234 46.295,31.317L42.849,34.823ZM56.167,49.217C58.79,52.323 61.349,55.52 63.845,58.801L67.757,55.825C65.213,52.48 62.602,49.217 59.922,46.045L56.167,49.217ZM68.226,64.737C70.599,68.048 72.911,71.436 75.164,74.892L79.282,72.207C76.992,68.693 74.639,65.246 72.222,61.874L68.226,64.737ZM79.109,81.11C81.254,84.583 83.342,88.119 85.375,91.711L89.653,89.289C87.591,85.646 85.471,82.056 83.291,78.527L79.109,81.11ZM88.947,98.184C90.886,101.787 92.771,105.439 94.604,109.135L99.008,106.951C97.152,103.208 95.242,99.507 93.276,95.854L88.947,98.184ZM97.823,115.782C99.577,119.489 101.279,123.234 102.932,127.011L107.435,125.041C105.764,121.221 104.042,117.432 102.268,113.68L97.823,115.782ZM105.841,133.814C107.425,137.606 108.961,141.426 110.45,145.266L115.034,143.49C113.53,139.611 111.978,135.751 110.376,131.919L105.841,133.814ZM113.072,152.186C114.504,156.048 115.888,159.928 117.226,163.818L121.875,162.219C120.524,158.293 119.127,154.377 117.682,150.478L113.072,152.186ZM119.587,170.837C120.877,174.759 122.122,178.687 123.321,182.616L128.023,181.18C126.813,177.219 125.559,173.257 124.257,169.301L119.587,170.837ZM125.438,189.71C126.597,193.682 127.711,197.651 128.781,201.61L133.527,200.327C132.449,196.338 131.326,192.338 130.158,188.333L125.438,189.71ZM130.674,208.781C131.71,212.799 132.701,216.803 133.648,220.783L138.431,219.645C137.477,215.635 136.478,211.603 135.435,207.555L130.674,208.781ZM135.318,227.979C136.237,232.037 137.11,236.067 137.939,240.063L142.752,239.063C141.917,235.041 141.038,230.981 140.113,226.893L135.318,227.979ZM139.41,247.351C140.214,251.449 140.972,255.503 141.684,259.505L146.524,258.643C145.807,254.613 145.044,250.531 144.234,246.405L139.41,247.351ZM142.945,266.815C143.636,270.955 144.279,275.031 144.873,279.033L149.736,278.311C149.137,274.279 148.49,270.173 147.794,266.005L142.945,266.815ZM145.919,286.351C146.495,290.541 147.017,294.639 147.488,298.633L152.37,298.057C151.895,294.031 151.369,289.903 150.79,285.681L145.919,286.351ZM148.308,305.965C148.757,310.219 149.146,314.337 149.477,318.303L154.376,317.895C154.042,313.891 153.649,309.737 153.196,305.449L148.308,305.965ZM150.038,325.673C150.181,327.757 150.307,329.793 150.416,331.775L155.325,331.503C155.214,329.499 155.087,327.443 154.942,325.337L150.038,325.673Z" fill="#8B8B8B"/>
</svg>
